<?xml version="1.0" encoding="utf-8"?>
<!-- Generator: Adobe Illustrator 24.0.1, SVG Export Plug-In . SVG Version: 6.00 Build 0)  -->
<svg version="1.1" id="Camada_1" xmlns="http://www.w3.org/2000/svg" xmlns:xlink="http://www.w3.org/1999/xlink" x="0px" y="0px"
	 viewBox="0 0 130 30" style="enable-background:new 0 0 130 30;" xml:space="preserve">
<style type="text/css">
	.st0{fill:#1DC6D1;}
	.st1{fill:#11BCC7;}
</style>
<path class="st0" d="M15,0C6.7,0,0,6.7,0,15c0,8.3,6.7,15,15,15c8.3,0,15-6.7,15-15C30,6.7,23.3,0,15,0z M16.7,16.3
	c0,0.9-0.2,1.6-0.7,2.1c-0.5,0.5-1.1,0.7-2,0.7c-0.9,0-1.7-0.3-2.2-0.8C11.3,17.8,11,17,11,16h2c0,0.8,0.3,1.2,0.9,1.2
	c0.5,0,0.8-0.3,0.8-0.9v-5.8h2.1V16.3z"/>
<path class="st1" d="M46.9,10.1v6.8c0,1-0.3,1.8-0.9,2.4c-0.6,0.6-1.3,0.8-2.3,0.8c-1.1,0-1.9-0.3-2.6-0.9c-0.6-0.6-1-1.5-1-2.6h2.4
	c0,0.9,0.3,1.4,1,1.4c0.6,0,0.9-0.4,0.9-1.1v-6.8H46.9z M51.8,10.1v5.7c0,0.7,0.1,1.2,0.4,1.5c0.3,0.3,0.7,0.5,1.3,0.5
	c0.6,0,1-0.2,1.3-0.5c0.3-0.3,0.4-0.8,0.4-1.5v-5.7h2.4v5.7c0,0.9-0.2,1.7-0.5,2.4c-0.4,0.6-0.9,1.1-1.5,1.4
	c-0.6,0.3-1.3,0.5-2.1,0.5s-1.5-0.2-2.1-0.5c-0.6-0.3-1.1-0.8-1.4-1.4c-0.3-0.6-0.5-1.4-0.5-2.4v-5.7H51.8z M62.7,10.1V20h-2.4v-9.9
	H62.7z M69.8,10c1.3,0,2.3,0.3,3.1,1c0.8,0.7,1.4,1.6,1.6,2.7H72c-0.2-0.5-0.5-0.8-0.9-1.1c-0.4-0.3-0.8-0.4-1.4-0.4
	c-0.7,0-1.3,0.3-1.7,0.8c-0.4,0.5-0.6,1.2-0.6,2.1c0,0.9,0.2,1.5,0.6,2.1c0.4,0.5,1,0.8,1.7,0.8c0.5,0,1-0.1,1.4-0.4
	c0.4-0.3,0.7-0.6,0.9-1.1h2.5c-0.2,1.1-0.8,2-1.6,2.7c-0.8,0.7-1.9,1-3.1,1c-1,0-1.8-0.2-2.5-0.6c-0.7-0.4-1.3-1-1.7-1.8
	C65.2,16.9,65,16,65,15s0.2-1.9,0.6-2.6c0.4-0.8,1-1.4,1.7-1.8C68,10.2,68.9,10,69.8,10z M79.3,12v2.1h3.3v1.8h-3.3v2.2h3.8V20h-6.2
	v-9.9h6.2V12H79.3z M94.3,15c0,1-0.2,1.8-0.6,2.6c-0.4,0.7-1,1.3-1.8,1.8c-0.8,0.4-1.7,0.6-2.7,0.6h-3.7v-9.9h3.7
	c1.1,0,2,0.2,2.8,0.6c0.8,0.4,1.4,1,1.8,1.7C94.1,13.2,94.3,14.1,94.3,15z M89,17.9c0.9,0,1.7-0.2,2.2-0.7c0.5-0.5,0.8-1.2,0.8-2.1
	s-0.3-1.6-0.8-2.1c-0.5-0.5-1.2-0.7-2.2-0.7h-1.1v5.7H89z M102.8,18.2h-3.7L98.5,20H96l3.6-9.8h2.8L106,20h-2.5L102.8,18.2z
	 M102.2,16.4l-1.2-3.6l-1.2,3.6H102.2z M110.3,10.1V20h-2.4v-9.9H110.3z M115.4,18.2h3.2V20H113v-9.9h2.4V18.2z M129.2,10.1
	l-3.4,6.6V20h-2.4v-3.3l-3.4-6.6h2.7l1.9,4l1.9-4H129.2z"/>
</svg>
