<svg width="100" height="24" viewBox="0 0 100 24" fill="none" xmlns="http://www.w3.org/2000/svg">
<path d="M11.6099 0C5.18575 0 0 5.18575 0 11.6099C0 18.034 5.18575 23.2198 11.6099 23.2198C18.034 23.2198 23.2198 18.034 23.2198 11.6099C23.2198 5.18575 18.034 0 11.6099 0ZM12.9257 12.6161C12.9257 13.3127 12.7709 13.8545 12.3839 14.2415C11.9969 14.6285 11.5325 14.7833 10.8359 14.7833C10.1393 14.7833 9.52012 14.5511 9.13312 14.1641C8.74612 13.7771 8.51393 13.1579 8.51393 12.3839H10.0619C10.0619 13.0031 10.2941 13.3127 10.7585 13.3127C11.1455 13.3127 11.3777 13.0805 11.3777 12.6161V8.12693H13.0031L12.9257 12.6161Z" fill="#1DC6D1"/>
<path d="M36.3003 7.8169V13.0801C36.3003 13.854 36.0681 14.4732 35.6037 14.9376C35.1393 15.402 34.5975 15.5568 33.8235 15.5568C32.9721 15.5568 32.3529 15.3246 31.8111 14.8602C31.3467 14.3958 31.0371 13.6992 31.0371 12.8479H32.8947C32.8947 13.5445 33.1269 13.9314 33.6687 13.9314C34.1331 13.9314 34.3653 13.6218 34.3653 13.0801V7.8169H36.3003V7.8169ZM40.0928 7.8169V12.2287C40.0928 12.7705 40.1702 13.1575 40.4024 13.3897C40.6346 13.6218 40.9442 13.7766 41.4086 13.7766C41.873 13.7766 42.1826 13.6218 42.4148 13.3897C42.647 13.1575 42.7244 12.7705 42.7244 12.2287V7.8169H44.582V12.2287C44.582 12.9253 44.4272 13.5445 44.195 14.0862C43.8854 14.5506 43.4984 14.9376 43.034 15.1698C42.5696 15.402 42.0278 15.5568 41.4086 15.5568C40.7894 15.5568 40.2476 15.402 39.7832 15.1698C39.3188 14.9376 38.9318 14.5506 38.6996 14.0862C38.4674 13.6219 38.3126 13.0027 38.3126 12.2287V7.8169H40.0928V7.8169ZM48.5294 7.8169V15.4794H46.6718V7.8169H48.5294ZM54.0247 7.7395C55.0309 7.7395 55.8049 7.9717 56.4241 8.5135C57.0433 9.05529 57.5077 9.75188 57.6625 10.6033H55.7275C55.5727 10.2163 55.3405 9.98408 55.0309 9.75188C54.7213 9.51969 54.4117 9.44229 53.9473 9.44229C53.4055 9.44229 52.9411 9.67448 52.6315 10.0615C52.3219 10.4485 52.1671 10.9903 52.1671 11.6869C52.1671 12.3835 52.3219 12.8479 52.6315 13.3123C52.9411 13.6993 53.4055 13.9314 53.9473 13.9314C54.3343 13.9314 54.7213 13.854 55.0309 13.6219C55.3405 13.3897 55.5727 13.1575 55.7275 12.7705H57.6625C57.5077 13.6219 57.0433 14.3184 56.4241 14.8602C55.8049 15.402 54.9535 15.6342 54.0247 15.6342C53.2507 15.6342 52.6315 15.4794 52.0897 15.1698C51.5479 14.8602 51.0835 14.3958 50.7739 13.7766C50.4643 13.0801 50.3095 12.3835 50.3095 11.6095C50.3095 10.8355 50.4643 10.1389 50.7739 9.59709C51.0835 8.97789 51.5479 8.5135 52.0897 8.2039C52.6315 7.8943 53.3281 7.7395 54.0247 7.7395ZM61.3776 9.28749V10.9129H63.9318V12.3061H61.3776V14.0088H64.3188V15.4794H59.5201V7.8169H64.3188V9.28749H61.3776ZM72.9875 11.6095C72.9875 12.3835 72.8327 13.0027 72.5231 13.6219C72.2135 14.1636 71.7492 14.628 71.13 15.015C70.5108 15.3246 69.8142 15.4794 69.0402 15.4794H66.1764V7.8169H69.0402C69.8916 7.8169 70.5882 7.9717 71.2074 8.2813C71.8266 8.59089 72.291 9.05529 72.6005 9.59709C72.8327 10.2163 72.9875 10.9129 72.9875 11.6095ZM68.8854 13.854C69.582 13.854 70.2012 13.6993 70.5882 13.3123C70.9752 12.9253 71.2074 12.3835 71.2074 11.6869C71.2074 10.9903 70.9752 10.4485 70.5882 10.0615C70.2012 9.67448 69.6594 9.51969 68.8854 9.51969H68.034V13.9314H68.8854V13.854ZM79.5665 14.0862H76.7027L76.2383 15.4794H74.3033L77.0897 7.8943H79.2569L82.0433 15.4794H80.1083L79.5665 14.0862ZM79.1021 12.6931L78.1733 9.90668L77.2445 12.6931H79.1021ZM85.3714 7.8169V15.4794H83.5139V7.8169H85.3714ZM89.3188 14.0862H91.7956V15.4794H87.4612V7.8169H89.3188V14.0862ZM99.9999 7.8169L97.3683 12.9253V15.4794H95.5107V12.9253L92.8792 7.8169H94.9689L96.4395 10.9129L97.9101 7.8169H99.9999Z" fill="#11BCC7"/>
</svg>
